<svg width="47" height="47" viewBox="0 0 47 47" fill="none" xmlns="http://www.w3.org/2000/svg">
<ellipse cx="23.5" cy="22.675" rx="23.5" ry="22.675" fill="#94DB93"/>
<mask id="mask0_113_1262" style="mask-type:alpha" maskUnits="userSpaceOnUse" x="0" y="0" width="47" height="46">
<ellipse cx="23.5" cy="22.675" rx="23.5" ry="22.675" fill="#94DB93"/>
</mask>
<g mask="url(#mask0_113_1262)">
<path d="M23.6185 17.9971C25.5702 17.9971 27.4418 18.7451 28.8218 20.0767C30.2018 21.4082 30.9771 23.2142 30.9771 25.0973C30.9771 26.9804 30.2018 28.7864 28.8218 30.118C27.4418 31.4495 25.5702 32.1976 23.6185 32.1976C21.6669 32.1976 19.7952 31.4495 18.4152 30.118C17.0352 28.7864 16.26 26.9804 16.26 25.0973C16.26 23.2142 17.0352 21.4082 18.4152 20.0767C19.7952 18.7451 21.6669 17.9971 23.6185 17.9971ZM23.6185 35.7477C31.7498 35.7477 37.7423 37.4363 37.7423 41.3592L34.3597 43.7641L28.3067 45.8255L23.6185 46.5126L18.8711 45.8255L13.8862 44.4513L8.90137 41.3592C8.90137 37.4363 15.4873 35.7477 23.6185 35.7477Z" fill="#FFFDFF"/>
</g>
</svg>
